# xmcd
#
# Track frame offsets:
#	150
#	9645
#	21512
#	37364
#	51400
#	65401
#	77151
#	89077
#	104483
#	115939
#	129393
#	140112
#	156752
#	168874
#	183322
#	196616
#	210155
#	222796
#	235808
#	252995
#	271159
#	292084
#	305211
#
# Disc length: 4233 seconds
#
# Revision: 0
# Processed by: cddbd v1.5.1PL2 Copyright (c) Steve Scherf et al.
# Submitted via: dBpowerAMP V4.0
#
DISCID=5a108717
DTITLE=Various Artist - Dave Godin's Deep Soul Treasures Volume 3
DYEAR=1900
DGENRE=Soul
TTITLE0=Toussaint McCall - I'm Undecided
TTITLE1=Jean Plum - Look At The Boy
TTITLE2=James Brown - Lost Someone
TTITLE3=Eddie and Ernie - Thanks For Yesterday
TTITLE4=Bessie Banks - It Sounds Like My Baby
TTITLE5=Bobby Womack - Baby I Can't Stand It
TTITLE6=Etta James - I'd Rather Go Blind
TTITLE7=Syl Johnson - Is It Because I'm Black
TTITLE8=Maxine Brown - All In My Mind
TTITLE9=Robert Ramsey - Like It Stands
TTITLE10=Irma Thomas - Wish Someone Would Care
TTITLE11=Ray Grant and The Arabian Nights - Don't Leave Me baby
TTITLE12=Carla Thomas - I Can't Take It
TTITLE13=JR Bailey - Too Far Gone (To Turn Around)
TTITLE14=Betty Lavette - Let Me Down Easy
TTITLE15=Bobby 'Blue' Bland - I'm Too Far Gone (To Turn Around)
TTITLE16=Barbara and The Browns - I Don't Want To Have To Wait
TTITLE17=The Enchanters - I Paid For The Party
TTITLE18=Rozetta Johnson - Who Are You Gonna Love (Your Woman Or Your Wife)
TTITLE19=Rick James and Friend - Ebony Eyes
TTITLE20=Doris Dule - He's Gone
TTITLE21=The Impressions - My Deceiving Heart
TTITLE22=Loretta Williams - I'm Missing You
EXTD=
EXTT0=
EXTT1=
EXTT2=
EXTT3=
EXTT4=
EXTT5=
EXTT6=
EXTT7=
EXTT8=
EXTT9=
EXTT10=
EXTT11=
EXTT12=
EXTT13=
EXTT14=
EXTT15=
EXTT16=
EXTT17=
EXTT18=
EXTT19=
EXTT20=
EXTT21=
EXTT22=
PLAYORDER=
